<svg xmlns="http://www.w3.org/2000/svg" height="17" viewBox="0 -26 389.784 389" width="16"><path d="M245.785 200.39v-136c0-35.285-28.715-64-64-64h-32c-35.289 0-64 28.715-64 64v16h32v-16c0-17.648 14.352-32 32-32h32c17.649 0 32 14.352 32 32v40h-64c-35.289 0-64 28.715-64 64v16c0 35.29 28.711 64 64 64h32c16.735 0 31.942-6.511 43.36-17.062 8.808 10.426 21.96 17.063 36.64 17.063h16v-32h-16c-8.824 0-16-7.176-16-16zm-64 16h-32c-17.648 0-32-14.35-32-32v-16c0-17.648 14.352-32 32-32h64v48c0 17.65-14.351 32-32 32zm0 0M309.785 248.39h48v48h32v-80h-80zm0 0M15.664 266.61L0 294.503l13.953 7.832c2.48 1.398 61.774 34.055 159.832 34.055 100.23 0 150.832-33.313 152.934-34.727l13.203-8.894-17.723-26.45-13.289 8.758c-.437.29-45.558 29.313-135.125 29.313-89.12 0-143.664-29.672-144.168-29.95zm0 0" data-original="#000000" class="active-path" data-old_color="#000000" fill="#65E496"/></svg>