<svg xmlns="http://www.w3.org/2000/svg" viewBox="0 0 1600 849"><path d="M811 849h-21a10 10 0 00-3-1l-49-4-174-13-187-14-174-13L0 789V0h8l2 1 41 3 98 7 112 9 98 7 114 9 97 7 112 9 87 7 35 2 119-9 163-13 151-11 177-14 164-12 11-2h11v789l-105 8-113 8-139 11-127 9-152 12-140 10-13 2z" fill="#44444f"/><path d="M1589 0l-11 2-164 12-177 14-151 11-163 13-119 9-35-2-87-7-112-9-97-7-114-9-98-7-112-9-98-7-41-3-2-1zM0 789l203 15 174 13 187 14 174 13 49 4a10 10 0 013 1H0zm811 60l13-2 140-10 152-12 127-9 139-11 113-8 105-8v60z" fill="#fdfdfd"/></svg>