<svg xmlns="http://www.w3.org/2000/svg" viewBox="0 0 351.1 351.1"><path d="M279 204c-4 27-38 55-64 56l-5 2c-2 1-3 1-3 3-10 17-5 31 11 42 17 12 46 0 60-12 35-29 71-80 69-129 6-32 5-67-4-96-6-18-24-27-42-28-19-2-56-7-73 4s-18 32-20 51c-1 20-7 58 10 74 17 15 66-1 61 33zm-202 0c-4 27-38 55-64 56l-5 2c-2 1-3 1-3 3-10 17-5 31 11 42 17 12 46 0 60-12 35-29 71-80 69-129 7-32 5-67-4-96-6-18-24-27-42-28-18-2-56-7-73 4C10 57 8 78 6 97c-1 20-7 58 10 74 17 15 67-1 61 33z" data-original="#000000" class="active-path" data-old_color="#000000" fill="#65E4B5"/></svg>